<?xml version="1.0" standalone="no"?>
<!DOCTYPE svg PUBLIC "-//W3C//DTD SVG 20010904//EN"
 "http://www.w3.org/TR/2001/REC-SVG-20010904/DTD/svg10.dtd">
<svg version="1.0" xmlns="http://www.w3.org/2000/svg"
 width="600.000000pt" height="434.000000pt" viewBox="0 0 600.000000 434.000000"
 preserveAspectRatio="xMidYMid meet">
<g transform="translate(0.000000,434.000000) scale(0.100000,-0.100000)"
fill="#5d6353" stroke="none">
<path d="M3142 4063 c-15 -6 -52 -75 -52 -98 0 -9 -4 -13 -10 -10 -5 3 -10 17
-10 30 0 120 -80 25 -85 -102 -2 -45 -8 -69 -24 -89 -11 -14 -21 -32 -21 -39
0 -7 -9 -24 -20 -38 -13 -16 -20 -40 -20 -67 0 -22 -8 -55 -17 -73 -9 -18 -19
-61 -22 -96 l-6 -64 -52 47 -52 47 -7 -25 c-3 -14 -10 -23 -15 -20 -5 3 -9 -3
-9 -12 0 -16 -1 -16 -20 1 -11 10 -34 43 -51 74 -18 31 -51 74 -74 96 -35 33
-44 51 -55 100 -7 33 -23 84 -37 114 -20 48 -25 53 -38 40 -8 -8 -20 -39 -28
-69 l-14 -55 -22 43 c-12 23 -26 40 -30 37 -20 -12 -34 -110 -27 -195 5 -66 3
-95 -9 -123 -17 -40 -26 -309 -12 -338 7 -14 -4 -23 -55 -47 -79 -38 -130 -52
-190 -52 -64 0 -80 -7 -68 -30 16 -31 79 -63 136 -69 l54 -6 -35 -40 c-56 -64
-95 -149 -111 -235 -7 -44 -16 -91 -20 -105 -3 -14 -2 -25 4 -25 12 0 61 38
87 68 l20 23 0 -98 c0 -86 3 -103 24 -140 33 -58 51 -56 52 5 l0 47 19 -42
c10 -23 41 -64 68 -90 75 -73 76 -99 7 -204 -31 -47 -55 -94 -55 -109 0 -14
13 -44 29 -66 22 -30 30 -54 34 -103 6 -77 25 -100 88 -109 l44 -6 -35 -6
c-29 -4 -36 -10 -38 -33 -2 -15 5 -39 16 -55 10 -15 24 -49 31 -76 24 -98 50
-127 133 -145 51 -12 129 -2 210 26 60 21 69 14 96 -80 38 -133 38 -140 -5
-170 -99 -66 -276 -259 -314 -342 -16 -33 -38 -101 -50 -150 -12 -50 -33 -119
-46 -154 -45 -120 -78 -291 -55 -291 4 0 19 48 33 108 14 59 56 179 93 266 66
157 84 228 33 131 -33 -63 -34 -39 -3 38 24 57 101 167 117 167 5 0 6 -13 3
-30 -9 -44 16 -39 49 10 22 32 23 58 2 40 -13 -11 -13 -8 1 25 18 45 37 75 45
75 10 0 -8 -93 -26 -136 -29 -66 -75 -207 -75 -227 0 -38 24 -8 104 130 44 77
87 147 94 156 7 8 34 20 60 26 26 7 132 53 235 103 104 50 243 110 309 132
125 42 158 64 92 62 -21 -1 -39 4 -41 12 -7 17 61 16 96 -3 16 -8 34 -28 40
-46 10 -29 8 -35 -11 -56 -26 -28 -20 -37 43 -61 32 -12 71 -45 140 -117 52
-55 109 -120 126 -145 61 -90 122 -256 168 -457 42 -183 45 -193 56 -193 34 0
-83 457 -148 585 -35 66 -97 145 -198 250 -75 77 -114 126 -131 165 -14 30
-29 62 -33 70 -13 25 -74 50 -124 50 -54 0 -55 1 -84 115 l-16 60 32 34 c18
19 53 44 79 56 26 12 53 29 60 38 8 9 20 13 27 10 13 -4 105 53 105 66 1 3 12
20 26 36 20 24 23 25 14 6 -34 -68 64 -31 132 50 22 26 50 72 62 103 23 57 23
57 30 26 9 -45 26 -34 64 41 42 83 60 180 45 243 -9 42 -3 61 12 36 13 -20 87
-51 116 -48 l29 3 -26 39 c-34 50 -59 130 -79 250 -19 121 -57 223 -103 277
-27 31 -31 41 -17 35 63 -26 75 -29 82 -23 12 12 -36 94 -76 129 -37 32 -130
78 -159 78 -15 0 -17 11 -17 83 0 68 -4 91 -25 131 -38 73 -50 71 -50 -10 l0
-67 -31 61 c-31 63 -90 122 -121 122 -22 0 -23 4 8 -66 l26 -59 -29 26 c-38
36 -79 55 -133 64 -25 4 -54 15 -65 25 -11 10 -37 23 -57 29 -32 11 -38 17
-43 49 -8 50 -71 223 -106 294 -16 31 -38 63 -49 71 -17 12 -18 18 -9 48 12
41 2 171 -14 192 -7 8 -18 13 -25 10z m18 -128 c0 -52 -5 -86 -12 -94 -11 -10
-9 -16 7 -29 11 -9 30 -31 43 -49 22 -31 108 -242 116 -285 19 -103 14 -95 62
-103 51 -7 59 -25 12 -25 -18 0 -75 -11 -126 -25 -91 -24 -95 -24 -130 -7 -36
17 -37 19 -38 76 -2 79 -45 162 -98 192 -21 12 -47 19 -57 17 -16 -5 -19 0
-19 35 0 23 6 45 13 49 6 4 19 28 27 53 11 33 25 52 53 70 22 14 33 26 25 28
-7 2 -18 5 -24 7 -14 4 0 105 20 143 l14 26 8 -35 c4 -19 7 -62 7 -96 -1 -35
2 -63 6 -63 4 0 12 26 18 59 15 77 53 167 64 149 5 -7 9 -49 9 -93z m-665
-200 c22 -84 28 -98 65 -132 23 -20 52 -57 65 -82 12 -25 33 -55 45 -66 12
-11 33 -39 47 -62 18 -32 31 -43 49 -43 16 0 24 -6 24 -17 0 -24 -77 -93 -104
-93 -12 0 -31 -7 -42 -15 -10 -8 -32 -15 -47 -15 -31 0 -84 -25 -136 -64 -51
-38 -103 -20 -138 48 -17 33 -14 175 4 198 18 23 22 57 10 88 -9 25 -8 34 9
57 35 49 39 57 21 50 -13 -5 -17 5 -22 58 -4 35 -4 87 0 117 l8 53 23 -50 c20
-43 23 -60 18 -125 -8 -110 11 -67 25 55 12 119 29 176 43 151 5 -9 20 -59 33
-111z m478 -156 c64 -33 107 -112 107 -196 0 -37 -9 -40 -45 -17 -24 16 -25
15 -25 -5 0 -27 -1 -27 -72 11 l-59 31 4 69 c7 101 35 135 90 107z m-98 -202
c78 -51 165 -81 173 -59 3 9 12 8 35 -7 44 -27 120 -46 125 -32 2 6 19 11 38
11 20 0 33 4 30 9 -3 4 33 13 80 19 155 20 253 -17 317 -120 19 -30 37 -37 37
-14 0 8 -11 47 -24 86 l-25 72 25 -23 c37 -34 84 -136 84 -181 0 -21 4 -38 9
-38 15 0 31 60 31 118 0 35 4 52 9 46 16 -16 29 -112 20 -157 -12 -63 -12 -64
28 -72 57 -10 128 -50 173 -97 22 -23 40 -45 40 -50 0 -4 -19 2 -42 12 -39 18
-98 27 -98 16 0 -3 24 -29 53 -58 67 -66 102 -139 122 -248 29 -153 45 -214
70 -262 13 -27 21 -48 17 -48 -28 0 -127 88 -138 122 -6 19 -24 25 -24 9 0 -5
5 -22 10 -36 37 -97 32 -240 -13 -335 l-21 -45 -6 65 c-4 36 -13 76 -21 90
-13 24 -14 21 -20 -51 -8 -93 -41 -171 -105 -246 -25 -29 -49 -53 -54 -53 -5
0 -2 17 7 38 22 51 43 142 33 142 -5 0 -20 -24 -33 -54 -15 -32 -54 -84 -96
-128 l-71 -73 20 49 c27 64 21 81 -10 30 -30 -48 -87 -112 -112 -125 -19 -10
-19 -9 -3 15 9 14 15 30 13 37 -4 11 -65 -50 -104 -105 -26 -36 -38 -29 -59
34 -17 52 -35 58 -35 12 l-1 -27 -16 29 c-8 17 -18 58 -21 92 l-5 63 52 50
c128 124 160 327 66 410 -45 39 -96 42 -148 7 -20 -14 -37 -20 -39 -14 -2 5
-18 -28 -36 -74 -18 -46 -42 -97 -52 -113 l-20 -30 0 63 c0 66 -12 80 -28 35
-10 -27 -10 -27 -11 12 -2 69 -13 116 -26 111 -12 -4 -37 44 -69 135 -18 50
-41 87 -50 78 -3 -3 3 -27 13 -55 47 -125 43 -126 -78 -8 -111 110 -172 195
-192 266 -13 50 -34 51 -24 1 11 -61 55 -196 76 -230 10 -18 14 -33 10 -33
-20 0 -133 95 -165 139 -49 66 -95 167 -102 224 -7 52 -24 64 -24 18 0 -17
-14 -72 -31 -123 -18 -51 -34 -124 -37 -162 l-5 -70 -20 25 c-64 80 -95 198
-77 296 14 74 7 92 -15 39 -23 -54 -21 -170 3 -234 15 -38 18 -66 15 -114 -3
-35 0 -80 5 -101 6 -21 7 -37 1 -37 -17 0 -78 105 -90 155 -18 76 -26 74 -34
-12 l-8 -78 -14 35 c-28 67 -11 204 42 333 13 31 -9 18 -35 -21 -45 -68 -112
-153 -117 -148 -7 7 17 114 39 174 14 39 43 77 105 143 47 49 84 92 81 94 -2
3 -22 -5 -44 -16 -44 -23 -110 -20 -173 8 l-36 16 70 9 c50 5 94 20 153 48 74
37 112 44 97 20 -3 -5 13 -14 35 -20 40 -11 43 -10 108 34 70 48 88 54 94 34
3 -9 16 -4 41 14 23 18 37 24 39 16 3 -8 15 -5 35 10 18 12 51 33 75 47 28 16
36 25 24 25 -18 0 -18 1 -2 19 25 28 17 65 -14 70 -24 3 -40 17 -40 35 0 5 6
3 13 -3 20 -16 27 -3 16 26 -13 36 -11 39 14 16 12 -11 54 -41 92 -66z m-382
-662 c42 -123 192 -271 296 -291 l32 -7 -35 65 c-20 36 -36 67 -36 70 0 3 61
-55 135 -130 80 -80 135 -129 135 -119 0 9 4 17 9 17 14 0 51 -127 51 -175 0
-43 12 -59 24 -32 3 6 3 -9 0 -35 -11 -95 47 -44 121 105 28 56 51 88 74 104
85 57 161 0 161 -121 0 -88 -31 -156 -110 -238 -64 -67 -69 -70 -106 -66 -22
3 -44 7 -49 9 -6 2 -11 0 -13 -6 -2 -5 -14 -29 -28 -53 -14 -24 -23 -46 -20
-50 8 -8 21 6 40 43 14 26 20 29 66 30 l50 0 0 -45 c0 -77 58 -175 91 -154 5
3 9 3 9 1 0 -2 7 -42 15 -89 15 -90 35 -146 67 -191 11 -16 19 -29 17 -31 -2
-2 -26 -9 -54 -16 -75 -20 -152 -54 -315 -135 -81 -41 -177 -83 -213 -95 -36
-12 -72 -29 -80 -38 -9 -9 -38 -58 -66 -107 -28 -50 -51 -87 -51 -83 0 4 16
47 36 95 38 93 120 196 135 171 11 -18 29 34 29 83 0 61 -29 188 -55 244 -13
27 -23 49 -22 50 1 0 24 11 51 25 81 41 65 54 -19 15 -115 -52 -198 -75 -274
-75 -93 0 -124 21 -146 97 -9 32 -18 65 -21 74 -2 9 -13 24 -24 34 -32 29 -26
55 13 55 40 0 66 15 52 29 -6 6 -32 15 -59 20 -66 12 -78 27 -85 108 -5 49
-13 77 -29 97 -33 42 -28 70 28 153 56 83 62 118 34 194 -16 44 -35 199 -24
199 3 0 20 -16 39 -35 51 -52 61 -47 61 31 0 52 36 244 46 244 1 0 9 -20 17
-45z m1161 -1466 c-4 -7 4 -20 17 -31 l24 -19 -33 16 c-27 13 -31 19 -21 31
14 17 23 19 13 3z m-826 -138 c-29 -27 -55 -48 -56 -46 -11 10 16 53 57 92 41
40 46 42 49 24 2 -15 -13 -36 -50 -70z"/>
<path d="M3004 3753 c3 -3 1 -12 -5 -19 -15 -19 -4 -56 22 -72 11 -8 18 -9 14
-3 -3 6 1 11 9 11 15 0 21 17 17 49 -2 8 3 10 11 6 9 -6 10 -5 2 4 -6 6 -25
16 -44 21 -18 5 -30 7 -26 3z m41 -43 c0 -16 -6 -26 -18 -28 -19 -4 -32 20
-23 44 9 25 41 13 41 -16z"/>
<path d="M3101 3505 c0 -35 36 -167 38 -140 1 6 6 3 11 -5 7 -11 10 -11 10 -2
0 7 4 11 8 8 4 -2 13 -2 19 2 27 18 65 132 44 132 -6 0 -11 -8 -11 -19 0 -37
-30 -91 -50 -91 -24 0 -36 22 -54 97 -14 56 -14 56 -15 18z"/>
<path d="M2384 3475 c-30 -46 12 -99 54 -69 26 18 29 56 6 78 -22 23 -41 20
-60 -9z m56 -5 c14 -26 -4 -63 -28 -58 -21 4 -29 57 -10 69 20 13 26 11 38
-11z"/>
<path d="M2400 3455 c0 -8 5 -15 10 -15 6 0 10 7 10 15 0 8 -4 15 -10 15 -5 0
-10 -7 -10 -15z"/>
<path d="M2899 3518 c-9 -17 -9 -20 4 -15 8 3 20 0 26 -6 15 -15 24 -3 16 22
-8 27 -31 27 -46 -1z"/>
<path d="M2980 3500 c-9 -17 -7 -22 16 -30 34 -13 40 -7 26 25 -14 30 -28 32
-42 5z"/>
<path d="M2516 2479 c-47 -11 -112 -57 -99 -70 5 -5 43 -2 86 7 71 15 84 15
149 0 97 -22 105 -9 25 38 -50 30 -107 38 -161 25z m127 -27 l39 -17 -94 0
c-51 0 -106 -4 -123 -8 -43 -12 -19 11 31 28 53 19 101 18 147 -3z"/>
<path d="M2523 2355 c-22 -25 -15 -37 16 -30 36 8 79 -13 114 -55 31 -36 41
-38 31 -7 -9 30 -32 55 -76 83 -43 27 -67 30 -85 9z"/>
<path d="M2536 2304 c-10 -26 -7 -91 6 -121 6 -15 11 -31 10 -35 -3 -14 34 -8
54 8 18 15 18 15 -4 9 -21 -6 -23 -5 -13 13 14 27 14 84 -1 117 -13 28 -43 33
-52 9z"/>
<path d="M3317 2240 c-41 -32 -71 -104 -64 -154 4 -30 2 -49 -9 -65 -22 -31
-7 -41 17 -11 15 18 19 35 15 64 -5 46 8 86 28 86 33 0 46 -68 25 -129 -15
-42 -5 -51 15 -12 32 60 12 161 -31 161 -13 0 -9 8 12 30 22 23 36 29 52 25
26 -6 32 10 7 19 -26 10 -40 7 -67 -14z"/>
<path d="M2320 1975 c7 -8 19 -15 27 -15 13 0 13 3 3 15 -7 8 -19 15 -27 15
-13 0 -13 -3 -3 -15z"/>
<path d="M3465 1215 c-48 -43 -49 -45 -31 -60 21 -16 102 -20 125 -6 19 12 7
27 -30 35 l-31 6 21 26 c19 24 20 44 3 44 -4 0 -30 -20 -57 -45z m21 -14 c-18
-19 -17 -20 15 -30 34 -9 33 -9 -15 -10 l-50 -1 29 30 c32 33 49 42 21 11z"/>
<path d="M3220 1110 c-59 -59 -55 -74 18 -67 32 4 66 9 76 13 26 10 13 28 -23
34 l-33 5 21 19 c26 24 27 36 1 36 -11 0 -38 -18 -60 -40z m32 -3 c-25 -26
-28 -39 -9 -36 35 4 37 -4 2 -11 -22 -4 -42 -6 -44 -4 -5 4 59 74 68 74 2 0
-5 -10 -17 -23z"/>
<path d="M2983 1015 c-23 -16 -63 -75 -63 -94 0 -14 53 -14 103 0 45 12 44 33
-1 37 -31 3 -32 4 -17 25 16 23 20 47 7 47 -4 0 -17 -7 -29 -15z m3 -37 c-22
-31 -20 -36 12 -41 19 -3 14 -4 -16 -6 -46 -1 -46 -1 -9 52 10 16 21 26 24 23
3 -2 -2 -15 -11 -28z"/>
<path d="M3622 1006 c-148 -48 -320 -212 -432 -409 -49 -88 -100 -317 -70
-317 6 0 10 10 10 23 0 37 39 177 66 236 37 83 155 241 232 312 39 36 102 82
142 102 90 46 148 49 247 12 90 -34 104 -25 21 14 -78 38 -154 47 -216 27z"/>
<path d="M2594 833 c-11 -43 -10 -96 2 -100 6 -2 24 21 40 51 28 55 28 80 -1
56 -12 -10 -15 -10 -15 4 0 26 -19 18 -26 -11z m25 -45 c-5 -10 -12 -18 -14
-18 -3 0 -5 8 -5 18 0 10 7 19 14 19 11 0 13 -5 5 -19z"/>
<path d="M2768 820 c-22 -32 -38 -104 -27 -121 6 -10 13 -9 31 6 63 53 88 81
88 98 0 18 -1 18 -34 -1 l-35 -21 -3 32 -3 32 -17 -25z m9 -70 c4 0 15 7 25
17 10 9 20 14 23 12 2 -3 -12 -17 -31 -33 -20 -15 -37 -26 -39 -24 -2 1 0 17
3 33 4 20 7 24 10 13 2 -10 6 -18 9 -18z"/>
<path d="M2526 627 c-9 -33 -7 -100 4 -117 11 -17 12 -16 39 37 31 62 27 105
-7 71 -9 -9 -12 -8 -12 4 0 26 -17 30 -24 5z m31 -64 c-10 -22 -13 -24 -15 -9
-2 10 2 22 10 27 19 12 19 12 5 -18z"/>
<path d="M2631 599 c-13 -39 -14 -116 -2 -124 9 -5 87 70 105 102 15 26 -9 35
-36 13 -32 -25 -40 -25 -37 -2 5 51 -14 58 -30 11z m27 -59 c3 0 17 10 30 23
22 20 24 20 14 2 -5 -11 -22 -30 -36 -42 l-26 -23 1 48 c1 29 4 37 6 20 2 -16
7 -28 11 -28z"/>
<path d="M3056 489 c-10 -51 -6 -152 7 -183 11 -25 13 -13 12 92 0 120 -7 152
-19 91z"/>
<path d="M2466 423 c-3 -3 -6 -37 -6 -75 0 -84 15 -89 53 -19 31 56 33 71 12
71 -8 0 -15 -4 -15 -10 0 -5 -4 -10 -10 -10 -5 0 -10 9 -10 19 0 21 -13 34
-24 24z m41 -62 c14 12 14 10 -1 -13 -25 -38 -36 -35 -35 10 0 33 1 35 10 13
8 -20 11 -22 26 -10z"/>
<path d="M2570 353 c0 -59 9 -93 24 -93 15 0 76 91 76 113 0 23 -15 22 -40 -3
-26 -26 -30 -25 -30 5 0 16 -6 25 -15 25 -11 0 -15 -12 -15 -47z m30 -33 c5 0
17 11 26 25 9 14 19 23 22 20 3 -2 -8 -23 -24 -46 -28 -40 -29 -41 -35 -18 -4
13 -7 35 -7 49 1 23 1 23 5 -2 2 -16 8 -28 13 -28z"/>
</g>
</svg>
